<?xml version="1.0" encoding="UTF-8" standalone="no" ?>
<!DOCTYPE svg PUBLIC "-//W3C//DTD SVG 1.1//EN" "http://www.w3.org/Graphics/SVG/1.1/DTD/svg11.dtd">
<svg xmlns="http://www.w3.org/2000/svg" xmlns:xlink="http://www.w3.org/1999/xlink" version="1.1" width="525.9743013000489" height="157.15823999999998" xml:space="preserve">
<desc>Created with Fabric.js 1.6.0-rc.1</desc>
<defs></defs>
  <g transform="translate(280.53 51.68) scale(1.56 1.56)">
   <text font-family="Masque" font-size="40" font-weight="normal" style="stroke: none; stroke-width: 1; stroke-dasharray: none; stroke-linecap: butt; stroke-linejoin: miter; stroke-miterlimit: 10; fill: #42de2a; fill-rule: nonzero; opacity: 1;" ><tspan x="-104.12" y="8.98" style="stroke: none; stroke-width: 0; stroke-dasharray: none; stroke-linecap: butt; stroke-linejoin: miter; stroke-miterlimit: 4; fill: #42de2a; fill-rule: ; opacity: 1;">S</tspan><tspan x="-75.32" y="8.98" style="stroke: none; stroke-width: 0; stroke-dasharray: none; stroke-linecap: butt; stroke-linejoin: miter; stroke-miterlimit: 4; fill: #42de2a; fill-rule: ; opacity: 1;">a</tspan><tspan x="-42.24" y="8.98" style="stroke: none; stroke-width: 0; stroke-dasharray: none; stroke-linecap: butt; stroke-linejoin: miter; stroke-miterlimit: 4; fill: #42de2a; fill-rule: ; opacity: 1;">v</tspan><tspan x="-13.36" y="8.98" style="stroke: none; stroke-width: 0; stroke-dasharray: none; stroke-linecap: butt; stroke-linejoin: miter; stroke-miterlimit: 4; fill: #42de2a; fill-rule: ; opacity: 1;">i</tspan><tspan x="0.84" y="8.98" style="stroke: none; stroke-width: 0; stroke-dasharray: none; stroke-linecap: butt; stroke-linejoin: miter; stroke-miterlimit: 4; fill: #42de2a; fill-rule: ; opacity: 1;">t</tspan><tspan x="27.76" y="8.98" style="stroke: none; stroke-width: 0; stroke-dasharray: none; stroke-linecap: butt; stroke-linejoin: miter; stroke-miterlimit: 4; fill: #42de2a; fill-rule: ; opacity: 1;">h</tspan><tspan x="58.96" y="8.98" style="stroke: none; stroke-width: 0; stroke-dasharray: none; stroke-linecap: butt; stroke-linejoin: miter; stroke-miterlimit: 4; fill: #42de2a; fill-rule: ; opacity: 1;">r</tspan><tspan x="89.92" y="8.98" style="stroke: none; stroke-width: 0; stroke-dasharray: none; stroke-linecap: butt; stroke-linejoin: miter; stroke-miterlimit: 4; fill: #42de2a; fill-rule: ; opacity: 1;">i</tspan></text>
 </g>
<g style="stroke: none; stroke-width: 1; stroke-dasharray: none; stroke-linecap: butt; stroke-linejoin: miter; stroke-miterlimit: 10; fill: none; fill-rule: nonzero; opacity: 1;" transform="translate(10 20.31000000000001) scale(0.33 0.33)" >
  <path d="M 8.939 44.696 h 178.784 c 4.943 0 8.939 -3.996 8.939 -8.939 V 8.939 c 0 -4.934 -3.996 -8.939 -8.939 -8.939 H 8.939 C 4.005 0 0 4.005 0 8.939 v 26.818 C 0 40.691 4.005 44.696 8.939 44.696 z M 277.115 80.453 H 8.939 C 4.005 80.453 0 84.457 0 89.392 v 26.818 c 0 4.943 4.005 8.939 8.939 8.939 h 268.176 c 4.943 0 8.939 -3.996 8.939 -8.939 V 89.392 C 286.054 84.457 282.058 80.453 277.115 80.453 z M 8.939 205.601 h 178.784 c 4.943 0 8.939 -3.996 8.939 -8.939 v -26.818 c 0 -4.943 -3.996 -8.939 -8.939 -8.939 H 8.939 c -4.934 0 -8.939 3.996 -8.939 8.939 v 26.818 C 0 201.605 4.005 205.601 8.939 205.601 z M 277.115 241.358 H 8.939 c -4.934 0 -8.939 3.996 -8.939 8.939 v 26.818 c 0 4.943 4.005 8.939 8.939 8.939 h 268.176 c 4.943 0 8.939 -3.996 8.939 -8.939 v -26.818 C 286.054 245.354 282.058 241.358 277.115 241.358 z" style="stroke: none; stroke-width: 1; stroke-dasharray: none; stroke-linecap: butt; stroke-linejoin: miter; stroke-miterlimit: 10; fill: #0814f7; fill-rule: nonzero; opacity: 1;" transform=" matrix(1 0 0 1 0 0) " stroke-linecap="round" />
</g>
  <g transform="translate(317.43 106.78) scale(1.57 1.57)">
   <text font-family="Amerika Sans" font-size="40" font-weight="normal" style="stroke: none; stroke-width: 1; stroke-dasharray: none; stroke-linecap: butt; stroke-linejoin: miter; stroke-miterlimit: 10; fill: #f50c0c; fill-rule: nonzero; opacity: 1;" ><tspan x="-126.96" y="8.98" style="stroke: none; stroke-width: 0; stroke-dasharray: none; stroke-linecap: butt; stroke-linejoin: miter; stroke-miterlimit: 4; fill: #f50c0c; fill-rule: ; opacity: 1;">E</tspan><tspan x="-104.12" y="8.98" style="stroke: none; stroke-width: 0; stroke-dasharray: none; stroke-linecap: butt; stroke-linejoin: miter; stroke-miterlimit: 4; fill: #f50c0c; fill-rule: ; opacity: 1;">N</tspan><tspan x="-77.56" y="8.98" style="stroke: none; stroke-width: 0; stroke-dasharray: none; stroke-linecap: butt; stroke-linejoin: miter; stroke-miterlimit: 4; fill: #f50c0c; fill-rule: ; opacity: 1;">T</tspan><tspan x="-51.68" y="8.98" style="stroke: none; stroke-width: 0; stroke-dasharray: none; stroke-linecap: butt; stroke-linejoin: miter; stroke-miterlimit: 4; fill: #f50c0c; fill-rule: ; opacity: 1;">E</tspan><tspan x="-28.84" y="8.98" style="stroke: none; stroke-width: 0; stroke-dasharray: none; stroke-linecap: butt; stroke-linejoin: miter; stroke-miterlimit: 4; fill: #f50c0c; fill-rule: ; opacity: 1;">R</tspan><tspan x="-2.84" y="8.98" style="stroke: none; stroke-width: 0; stroke-dasharray: none; stroke-linecap: butt; stroke-linejoin: miter; stroke-miterlimit: 4; fill: #f50c0c; fill-rule: ; opacity: 1;">P</tspan><tspan x="23.24" y="8.98" style="stroke: none; stroke-width: 0; stroke-dasharray: none; stroke-linecap: butt; stroke-linejoin: miter; stroke-miterlimit: 4; fill: #f50c0c; fill-rule: ; opacity: 1;">R</tspan><tspan x="49.24" y="8.98" style="stroke: none; stroke-width: 0; stroke-dasharray: none; stroke-linecap: butt; stroke-linejoin: miter; stroke-miterlimit: 4; fill: #f50c0c; fill-rule: ; opacity: 1;">I</tspan><tspan x="57.24" y="8.98" style="stroke: none; stroke-width: 0; stroke-dasharray: none; stroke-linecap: butt; stroke-linejoin: miter; stroke-miterlimit: 4; fill: #f50c0c; fill-rule: ; opacity: 1;">S</tspan><tspan x="80.68" y="8.98" style="stroke: none; stroke-width: 0; stroke-dasharray: none; stroke-linecap: butt; stroke-linejoin: miter; stroke-miterlimit: 4; fill: #f50c0c; fill-rule: ; opacity: 1;">E</tspan><tspan x="103.52" y="8.98" style="stroke: none; stroke-width: 0; stroke-dasharray: none; stroke-linecap: butt; stroke-linejoin: miter; stroke-miterlimit: 4; fill: #f50c0c; fill-rule: ; opacity: 1;">S</tspan></text>
 </g>
<g style="stroke: none; stroke-width: 1; stroke-dasharray: none; stroke-linecap: butt; stroke-linejoin: miter; stroke-miterlimit: 10; fill: none; fill-rule: nonzero; opacity: 1;" transform="translate(65 20.310000000000002) scale(0.12 0.16)" >
  <path d="M 297.674 369.116 h -83.349 V 107.163 h 83.349 V 369.116 z" style="stroke: none; stroke-width: 1; stroke-dasharray: none; stroke-linecap: butt; stroke-linejoin: miter; stroke-miterlimit: 10; fill: #898890; fill-rule: nonzero; opacity: 1;" transform=" matrix(1 0 0 1 0 0) " stroke-linecap="round" />
  <path d="M 297.674 369.116 H 256 V 107.163 h 41.674 V 369.116 z" style="stroke: none; stroke-width: 1; stroke-dasharray: none; stroke-linecap: butt; stroke-linejoin: miter; stroke-miterlimit: 10; fill: #57565C; fill-rule: nonzero; opacity: 1;" transform=" matrix(1 0 0 1 0 0) " stroke-linecap="round" />
  <path d="M 416.744 142.884 h -273.86 V 23.814 h 140.37 l 133.49 53.397 V 142.884 z" style="stroke: none; stroke-width: 1; stroke-dasharray: none; stroke-linecap: butt; stroke-linejoin: miter; stroke-miterlimit: 10; fill: #E0E0E2; fill-rule: nonzero; opacity: 1;" transform=" matrix(1 0 0 1 0 0) " stroke-linecap="round" />
  <path d="M 178.605 166.698 H 95.256 V 0 h 83.349 V 166.698 z" style="stroke: none; stroke-width: 1; stroke-dasharray: none; stroke-linecap: butt; stroke-linejoin: miter; stroke-miterlimit: 10; fill: #898890; fill-rule: nonzero; opacity: 1;" transform=" matrix(1 0 0 1 0 0) " stroke-linecap="round" />
  <path d="M 321.488 512 H 190.512 V 333.395 h 130.977 V 512 z" style="stroke: none; stroke-width: 1; stroke-dasharray: none; stroke-linecap: butt; stroke-linejoin: miter; stroke-miterlimit: 10; fill: #0f0f0e; fill-rule: nonzero; opacity: 1;" transform=" matrix(1 0 0 1 0 0) " stroke-linecap="round" />
  <path d="M 178.605 166.698 H 95.256 V 83.349 h 83.349 V 166.698 z" style="stroke: none; stroke-width: 1; stroke-dasharray: none; stroke-linecap: butt; stroke-linejoin: miter; stroke-miterlimit: 10; fill: #57565C; fill-rule: nonzero; opacity: 1;" transform=" matrix(1 0 0 1 0 0) " stroke-linecap="round" />
  <path d="M 321.488 512 H 256 V 333.395 h 65.488 V 512 z" style="stroke: none; stroke-width: 1; stroke-dasharray: none; stroke-linecap: butt; stroke-linejoin: miter; stroke-miterlimit: 10; fill: #CD7400; fill-rule: nonzero; opacity: 1;" transform=" matrix(1 0 0 1 0 0) " stroke-linecap="round" />
  <polygon points="283.25,23.81 256,23.81 256,142.88 416.74,142.88 416.74,77.21 " style="stroke: none; stroke-width: 1; stroke-dasharray: none; stroke-linecap: butt; stroke-linejoin: miter; stroke-miterlimit: 10; fill: #C6C5CB; fill-rule: nonzero; opacity: 1;" transform="  matrix(1 0 0 1 0 0) "/>
</g>
</svg>